# xmcd
#
# Track frame offsets:
#	150
#	15848
#	29862
#	44900
#	58730
#	68170
#	80192
#	92986
#	104862
#	114444
#	131359
#	144856
#	159250
#	172554
#	185049
#	200303
#	213341
#	229263
#	244520
#	263683
#	282579
#	299883
#	317632
#	328888
#	339798
#
# Disc length: 4676 seconds
# Revision: 1
# Processed by: cddbd v1.5.2PL0 Copyright (c) Steve Scherf et al.
# Submitted via: dBpowerAMP V12.0
#
DISCID=7b124219
DTITLE=Strait, George - Strait Hits
DYEAR=2006
DGENRE=Country
TTITLE0=I Just Want To Dance With You
TTITLE1=Am I Blue
TTITLE2=All My Ex's Live In Texas
TTITLE3=Easy Come, Easy Go
TTITLE4=Right Or Wrong
TTITLE5=Fool Hearted Memory
TTITLE6=The Chair
TTITLE7=Ace In The Hole
TTITLE8=The Big One
TTITLE9=I've Come To Expect It From You
TTITLE10=Carried Away
TTITLE11=Check Yes Or No
TTITLE12=If You're Thinking You Want A Stranger (There's One Coming Home)
TTITLE13=She'll Leave You With A Smile
TTITLE14=Good News, Bad News
TTITLE15=Amarillo By Morning
TTITLE16=True
TTITLE17=The Best Day
TTITLE18=I Can Still Make Cheyenne
TTITLE19=The Seashores Of Old Mexico
TTITLE20=One Night At A Time
TTITLE21=I Hate Everything
TTITLE22=We Really Shouldn't Be Doing This
TTITLE23=Down And Out
TTITLE24=Unwound
EXTD=
EXTT0=
EXTT1=
EXTT2=
EXTT3=
EXTT4=
EXTT5=
EXTT6=
EXTT7=
EXTT8=
EXTT9=
EXTT10=
EXTT11=
EXTT12=
EXTT13=
EXTT14=
EXTT15=
EXTT16=
EXTT17=
EXTT18=
EXTT19=
EXTT20=
EXTT21=
EXTT22=
EXTT23=
EXTT24=
PLAYORDER=
